<svg xmlns="http://www.w3.org/2000/svg" viewBox="0 0 96 96" role="img" aria-label="SuperLLM">
  <defs>
    <linearGradient id="bg" x1="14" y1="10" x2="82" y2="86" gradientUnits="userSpaceOnUse">
      <stop offset="0" stop-color="#14b8a6"/>
      <stop offset="0.48" stop-color="#2563eb"/>
      <stop offset="1" stop-color="#7c3aed"/>
    </linearGradient>
    <linearGradient id="beam" x1="24" y1="30" x2="72" y2="66" gradientUnits="userSpaceOnUse">
      <stop offset="0" stop-color="#ecfeff"/>
      <stop offset="1" stop-color="#dbeafe"/>
    </linearGradient>
    <filter id="shadow" x="-20%" y="-20%" width="140%" height="140%">
      <feDropShadow dx="0" dy="8" stdDeviation="6" flood-color="#0f172a" flood-opacity="0.22"/>
    </filter>
  </defs>
  <rect width="96" height="96" rx="24" fill="#0f172a"/>
  <rect x="8" y="8" width="80" height="80" rx="20" fill="url(#bg)" filter="url(#shadow)"/>
  <path d="M28 34h18c9 0 16 7 16 16s-7 16-16 16H28" fill="none" stroke="url(#beam)" stroke-width="9" stroke-linecap="round"/>
  <path d="M32 34h18c9 0 16 7 16 16s-7 16-16 16H32" fill="none" stroke="#ffffff" stroke-opacity="0.32" stroke-width="3" stroke-linecap="round"/>
  <path d="M32 48h26" fill="none" stroke="#0f172a" stroke-opacity="0.35" stroke-width="7" stroke-linecap="round"/>
  <circle cx="28" cy="48" r="8" fill="#f8fafc"/>
  <circle cx="68" cy="48" r="8" fill="#f8fafc"/>
  <path d="M48 24v12M48 60v12M24 48H12M84 48H72" stroke="#a7f3d0" stroke-width="4" stroke-linecap="round" opacity="0.9"/>
  <path d="M34 72l7-14h14l-7 14z" fill="#fef08a" opacity="0.95"/>
</svg>
